<?xml version="1.0" encoding="utf-8"?>
<!-- Generator: Adobe Illustrator 24.1.1, SVG Export Plug-In . SVG Version: 6.00 Build 0)  -->
<svg version="1.1" id="Capa_1" xmlns="http://www.w3.org/2000/svg" xmlns:xlink="http://www.w3.org/1999/xlink" x="0px" y="0px"
	 viewBox="0 0 203 123" style="enable-background:new 0 0 203 123;" xml:space="preserve">
<style type="text/css">
	.st0{stroke:#000000;stroke-miterlimit:10;}
</style>
<polygon class="st0" points="57,6.3888 102.5626,85.3056 11.4374,85.3056 "/>
<polygon class="st0" points="111,85.6112 65.4374,6.6944 156.5626,6.6944 "/>
<g>
	<path d="M28.8218,115.9824c0.1406,0.4219,0.2285,0.7559,0.2637,1.002s-0.0117,0.4297-0.1406,0.5527s-0.3574,0.1992-0.6855,0.2285
		s-0.7793,0.0449-1.3535,0.0449c-0.5977,0-1.0635-0.0098-1.3975-0.0273s-0.5889-0.0527-0.7646-0.1055s-0.2988-0.125-0.3691-0.2188
		s-0.1289-0.2168-0.1758-0.3691l-1.5293-4.5703h-8.543l-1.4414,4.4473c-0.0469,0.1641-0.1084,0.3008-0.1846,0.4121
		s-0.1992,0.1992-0.3691,0.2637s-0.4102,0.1094-0.7207,0.1328s-0.7178,0.0352-1.2217,0.0352c-0.5391,0-0.9609-0.0176-1.2656-0.0527
		s-0.5156-0.1211-0.6328-0.2559s-0.1582-0.3242-0.123-0.5703s0.123-0.5742,0.2637-0.9844l7.0137-20.1797
		c0.0703-0.1992,0.1523-0.3613,0.2461-0.4844s0.2432-0.2168,0.4482-0.2813s0.4893-0.1055,0.8525-0.123s0.8438-0.0254,1.4414-0.0254
		c0.6914,0,1.2422,0.0078,1.6523,0.0254s0.7295,0.0586,0.958,0.123s0.3926,0.1621,0.4922,0.291s0.1846,0.3047,0.2549,0.5273
		L28.8218,115.9824z M18.3804,99.3008h-0.0176l-3.2168,9.668h6.4512L18.3804,99.3008z"/>
	<path d="M49.9717,110.8848c0,0.8086-0.1113,1.541-0.334,2.1973s-0.5303,1.2363-0.9229,1.7402s-0.8613,0.9375-1.4063,1.3008
		s-1.1455,0.6621-1.8018,0.8965s-1.3564,0.4063-2.1006,0.5176s-1.5732,0.168-2.4873,0.168h-6.0469
		c-0.3867,0-0.7119-0.1152-0.9756-0.3438s-0.3955-0.5996-0.3955-1.1152V96.418c0-0.5156,0.1318-0.8887,0.3955-1.1172
		s0.5889-0.3418,0.9756-0.3418h5.7129c1.3945,0,2.5752,0.1172,3.542,0.3516s1.7813,0.5879,2.4434,1.0625
		s1.1689,1.0762,1.5205,1.8027s0.5273,1.582,0.5273,2.5664c0,0.5508-0.0703,1.0684-0.2109,1.5547s-0.3457,0.9297-0.6152,1.3281
		s-0.6006,0.75-0.9932,1.0547s-0.8408,0.5508-1.3447,0.7383c0.6445,0.1172,1.2393,0.3223,1.7842,0.6152s1.0195,0.6699,1.4238,1.1328
		s0.7236,1.0059,0.958,1.627S49.9717,110.1113,49.9717,110.8848z M43.9951,101.3047c0-0.457-0.0703-0.8672-0.2109-1.2305
		s-0.3516-0.666-0.6328-0.9063s-0.6357-0.4238-1.0635-0.5527s-0.999-0.1934-1.7139-0.1934h-2.3379v5.9063h2.584
		c0.668,0,1.2012-0.0801,1.5996-0.2383s0.7295-0.375,0.9932-0.6504s0.46-0.5977,0.5889-0.9668S43.9951,101.7148,43.9951,101.3047z
		 M45.1729,111.043c0-0.5273-0.0879-1-0.2637-1.416s-0.4336-0.7637-0.7734-1.0449s-0.7734-0.498-1.3008-0.6504
		s-1.2129-0.2285-2.0566-0.2285h-2.7422v6.4688h3.3398c0.6445,0,1.1865-0.0684,1.626-0.2031s0.8203-0.334,1.1426-0.5977
		s0.5742-0.5918,0.7559-0.9844S45.1729,111.5469,45.1729,111.043z"/>
	<path d="M72.0532,117.1074c0,0.1289-0.0234,0.2363-0.0703,0.3242s-0.1582,0.1621-0.334,0.2207s-0.4336,0.0996-0.7734,0.123
		s-0.8027,0.0352-1.3887,0.0352c-0.4922,0-0.8848-0.0117-1.1777-0.0352s-0.5244-0.0684-0.6943-0.1328s-0.29-0.1465-0.3604-0.2461
		s-0.1289-0.2188-0.1758-0.3594l-2.0391-5.0801c-0.2461-0.5742-0.4863-1.084-0.7207-1.5293s-0.4951-0.8184-0.7822-1.1172
		s-0.6182-0.5234-0.9932-0.6758s-0.8086-0.2285-1.3008-0.2285h-1.4414v8.666c0,0.1172-0.0381,0.2227-0.1143,0.3164
		s-0.2021,0.1699-0.3779,0.2285s-0.4102,0.1055-0.7031,0.1406s-0.668,0.0527-1.125,0.0527c-0.4453,0-0.8174-0.0176-1.1162-0.0527
		s-0.5361-0.082-0.7119-0.1406s-0.2988-0.1348-0.3691-0.2285s-0.1055-0.1992-0.1055-0.3164V96.418
		c0-0.5156,0.1318-0.8887,0.3955-1.1172s0.5889-0.3418,0.9756-0.3418h5.8887c0.5977,0,1.0898,0.0117,1.4766,0.0352
		s0.7383,0.0527,1.0547,0.0879c0.9141,0.1289,1.7373,0.3516,2.4697,0.668s1.3535,0.7285,1.8633,1.2383s0.8994,1.1133,1.1689,1.8105
		s0.4043,1.498,0.4043,2.4004c0,0.7617-0.0967,1.4551-0.29,2.082s-0.4775,1.1875-0.8525,1.6797s-0.8379,0.9199-1.3887,1.2832
		s-1.1777,0.6563-1.8809,0.8789c0.3398,0.1641,0.6592,0.3633,0.958,0.5977s0.5801,0.5176,0.8438,0.8516s0.5127,0.7148,0.7471,1.1426
		s0.4629,0.9121,0.6855,1.4512l1.916,4.4824c0.1758,0.4453,0.293,0.7695,0.3516,0.9746S72.0532,116.9902,72.0532,117.1074z
		 M66.0942,101.6738c0-0.75-0.1699-1.3828-0.5098-1.8984s-0.8965-0.8789-1.6699-1.0898c-0.2344-0.0586-0.501-0.1055-0.7998-0.1406
		s-0.7119-0.0527-1.2393-0.0527h-2.0742v6.4512h2.3555c0.6563,0,1.2305-0.0801,1.7227-0.2383s0.9023-0.3809,1.2305-0.668
		s0.5742-0.6289,0.7383-1.0273S66.0942,102.166,66.0942,101.6738z"/>
	<path d="M90.354,115.8945c0,0.3398-0.0146,0.623-0.0439,0.8516s-0.0732,0.4141-0.1318,0.5547s-0.1318,0.2422-0.2197,0.3066
		s-0.1846,0.0977-0.29,0.0977H78.2427c-0.3867,0-0.7119-0.1152-0.9756-0.3438s-0.3955-0.5996-0.3955-1.1152V96.418
		c0-0.5156,0.1318-0.8887,0.3955-1.1172s0.5889-0.3418,0.9756-0.3418h11.3555c0.1055,0,0.1992,0.0293,0.2813,0.0879
		s0.1523,0.1602,0.2109,0.3066s0.1025,0.334,0.1318,0.5625s0.0439,0.5195,0.0439,0.8711c0,0.3281-0.0146,0.6055-0.0439,0.834
		s-0.0732,0.4141-0.1318,0.5547s-0.1289,0.2422-0.2109,0.3066s-0.1758,0.0977-0.2813,0.0977h-8.1211v5.5547h6.873
		c0.1055,0,0.2021,0.0313,0.29,0.0957s0.1611,0.1641,0.2197,0.2988s0.1025,0.3164,0.1318,0.5449s0.0439,0.5078,0.0439,0.8359
		c0,0.3398-0.0146,0.6211-0.0439,0.8438s-0.0732,0.4004-0.1318,0.5352s-0.1318,0.2324-0.2197,0.291s-0.1846,0.0879-0.29,0.0879
		h-6.873v6.416h8.1914c0.1055,0,0.2021,0.0313,0.29,0.0957s0.1611,0.168,0.2197,0.3086s0.1025,0.3242,0.1318,0.5527
		S90.354,115.5547,90.354,115.8945z"/>
	<path d="M114.0674,109.2324c0,1.3945-0.2051,2.6426-0.6152,3.7441s-1.0137,2.0332-1.8105,2.7949s-1.7813,1.3418-2.9531,1.7402
		s-2.5195,0.5977-4.043,0.5977c-1.4297,0-2.7129-0.1797-3.8496-0.5371s-2.0977-0.8984-2.8828-1.625s-1.3857-1.6328-1.8018-2.7168
		s-0.624-2.3516-0.624-3.8047v-13.834c0-0.1172,0.0352-0.2227,0.1055-0.3164s0.1963-0.1699,0.3779-0.2285
		s0.4189-0.1055,0.7119-0.1406s0.668-0.0527,1.125-0.0527c0.4453,0,0.8145,0.0176,1.1074,0.0527s0.5273,0.082,0.7031,0.1406
		s0.3018,0.1348,0.3779,0.2285s0.1143,0.1992,0.1143,0.3164v13.4297c0,0.9023,0.1113,1.6836,0.334,2.3457s0.542,1.2109,0.958,1.6445
		s0.9141,0.7578,1.4941,0.9746s1.2275,0.3262,1.9424,0.3262c0.7266,0,1.377-0.1113,1.9512-0.334s1.0605-0.5488,1.459-0.9766
		s0.7061-0.9551,0.9229-1.582s0.3252-1.3379,0.3252-2.1348V95.5918c0-0.1172,0.0352-0.2227,0.1055-0.3164
		s0.1934-0.1699,0.3691-0.2285s0.4131-0.1055,0.7119-0.1406s0.6709-0.0527,1.1162-0.0527s0.8115,0.0176,1.0986,0.0527
		s0.5186,0.082,0.6943,0.1406s0.2988,0.1348,0.3691,0.2285s0.1055,0.1992,0.1055,0.3164V109.2324z"/>
	<path d="M139.3652,105.998c0,2.0859-0.2734,3.8691-0.8184,5.3516s-1.3262,2.6934-2.3457,3.6309s-2.2598,1.625-3.7188,2.0645
		s-3.1953,0.6602-5.2109,0.6602h-5.4316c-0.3867,0-0.7129-0.1152-0.9766-0.3438s-0.3945-0.5996-0.3945-1.1152V96.418
		c0-0.5156,0.1309-0.8887,0.3945-1.1172s0.5898-0.3418,0.9766-0.3418h5.8359c2.0273,0,3.7461,0.2363,5.1582,0.7109
		s2.6016,1.1777,3.5684,2.1094s1.7031,2.084,2.207,3.4551S139.3652,104.1934,139.3652,105.998z M134.584,106.1563
		c0-1.0781-0.127-2.0801-0.3789-3.0059s-0.6563-1.7285-1.2129-2.4082s-1.2715-1.2109-2.1445-1.5918s-2.0176-0.5703-3.4355-0.5703
		h-2.3379v15.4688h2.4082c1.2656,0,2.332-0.1641,3.1992-0.4922s1.5898-0.8242,2.1699-1.4863s1.0137-1.4844,1.3008-2.4688
		S134.584,107.4688,134.584,106.1563z"/>
	<path d="M158.1563,115.8945c0,0.3398-0.0146,0.623-0.0439,0.8516s-0.0732,0.4141-0.1318,0.5547s-0.1318,0.2422-0.2197,0.3066
		s-0.1846,0.0977-0.29,0.0977h-11.4258c-0.3867,0-0.7119-0.1152-0.9756-0.3438s-0.3955-0.5996-0.3955-1.1152V96.418
		c0-0.5156,0.1318-0.8887,0.3955-1.1172s0.5889-0.3418,0.9756-0.3418h11.3555c0.1055,0,0.1992,0.0293,0.2813,0.0879
		s0.1523,0.1602,0.2109,0.3066s0.1025,0.334,0.1318,0.5625s0.0439,0.5195,0.0439,0.8711c0,0.3281-0.0146,0.6055-0.0439,0.834
		s-0.0732,0.4141-0.1318,0.5547s-0.1289,0.2422-0.2109,0.3066s-0.1758,0.0977-0.2813,0.0977h-8.1211v5.5547h6.873
		c0.1055,0,0.2021,0.0313,0.29,0.0957s0.1611,0.1641,0.2197,0.2988s0.1025,0.3164,0.1318,0.5449s0.0439,0.5078,0.0439,0.8359
		c0,0.3398-0.0146,0.6211-0.0439,0.8438s-0.0732,0.4004-0.1318,0.5352s-0.1318,0.2324-0.2197,0.291s-0.1846,0.0879-0.29,0.0879
		h-6.873v6.416h8.1914c0.1055,0,0.2021,0.0313,0.29,0.0957s0.1611,0.168,0.2197,0.3086s0.1025,0.3242,0.1318,0.5527
		S158.1563,115.5547,158.1563,115.8945z"/>
	<path d="M175.4658,116.8965c-0.0586,0.1992-0.1348,0.3594-0.2285,0.4824s-0.2461,0.2168-0.457,0.2813s-0.498,0.1055-0.8613,0.123
		s-0.8379,0.0273-1.4238,0.0273c-0.4688,0-0.8701-0.0039-1.2041-0.0098s-0.6182-0.0195-0.8525-0.043s-0.4248-0.0586-0.5713-0.1055
		s-0.2695-0.1055-0.3691-0.1758s-0.1758-0.1563-0.2285-0.2559s-0.1025-0.2246-0.1494-0.377l-6.7676-20.1621
		c-0.1406-0.4219-0.2256-0.7559-0.2549-1.002s0.0293-0.4316,0.1758-0.5547s0.3955-0.1992,0.7471-0.2285s0.8438-0.043,1.4766-0.043
		c0.5391,0,0.9609,0.0117,1.2656,0.0352s0.5391,0.0645,0.7031,0.123s0.2783,0.1465,0.3428,0.2637s0.126,0.2637,0.1846,0.4395
		l5.5371,17.543h0.0176l5.4316-17.4551c0.0469-0.1992,0.1055-0.3613,0.1758-0.4844s0.1904-0.2188,0.3604-0.2891
		s0.4131-0.1172,0.7295-0.1406s0.75-0.0352,1.3008-0.0352c0.5391,0,0.958,0.0176,1.2568,0.0527s0.5039,0.1191,0.6152,0.2539
		s0.1465,0.3262,0.1055,0.5723s-0.1318,0.5742-0.2725,0.9844L175.4658,116.8965z"/>
</g>
<g>
</g>
<g>
</g>
<g>
</g>
<g>
</g>
<g>
</g>
<g>
</g>
<g>
</g>
<g>
</g>
<g>
</g>
<g>
</g>
<g>
</g>
</svg>
